<?xml version="1.0" encoding="UTF-8" standalone="no"?>
<!-- Created with Inkscape (http://www.inkscape.org/) -->

<svg
   xmlns:dc="http://purl.org/dc/elements/1.1/"
   xmlns:cc="http://creativecommons.org/ns#"
   xmlns:rdf="http://www.w3.org/1999/02/22-rdf-syntax-ns#"
   xmlns:svg="http://www.w3.org/2000/svg"
   xmlns="http://www.w3.org/2000/svg"
   xmlns:sodipodi="http://sodipodi.sourceforge.net/DTD/sodipodi-0.dtd"
   xmlns:inkscape="http://www.inkscape.org/namespaces/inkscape"
   width="210mm"
   height="297mm"
   viewBox="0 0 210 297"
   version="1.1"
   id="svg8"
   sodipodi:docname="yoga_logo.svg"
   inkscape:version="0.92.3 (unknown)">
  <defs
     id="defs2" />
  <sodipodi:namedview
     id="base"
     pagecolor="#ffffff"
     bordercolor="#666666"
     borderopacity="1.0"
     inkscape:pageopacity="0.0"
     inkscape:pageshadow="2"
     inkscape:zoom="0.35"
     inkscape:cx="183.97289"
     inkscape:cy="635.18155"
     inkscape:document-units="mm"
     inkscape:current-layer="layer1"
     showgrid="false"
     inkscape:window-width="1366"
     inkscape:window-height="717"
     inkscape:window-x="0"
     inkscape:window-y="0"
     inkscape:window-maximized="1" />
  <metadata
     id="metadata5">
    <rdf:RDF>
      <cc:Work
         rdf:about="">
        <dc:format>image/svg+xml</dc:format>
        <dc:type
           rdf:resource="http://purl.org/dc/dcmitype/StillImage" />
        <dc:title></dc:title>
      </cc:Work>
    </rdf:RDF>
  </metadata>
  <g
     inkscape:label="Layer 1"
     inkscape:groupmode="layer"
     id="layer1">
    <path
       style="fill:#000000;stroke-width:0.18846764"
       d="m 30.581399,75.070857 c -5.925335,-1.20676 -10.658225,-3.05615 -14.806245,-5.78556 -4.8195,-3.17123 -7.79317,-7.6987 -6.58768,-10.02985 1.63028,-3.152623 11.18419,-2.859493 18.530015,0.56854 5.08159,2.32934 8.07352,6.61718 12.46306,9.59468 4.34675,2.53209 8.08394,3.63776 12.5458,2.27067 2.88164,-0.90571 5.5221,-2.72498 6.85757,-4.72486 1.55933,-2.33511 1.00394,-2.3572 -3.3455,-0.13306 -4.50488,2.30362 -5.08349,2.49627 -7.46989,2.48711 -2.21419,0.0381 -5.03821,-0.84866 -5.75194,-3.02998 -0.67812,-2.27274 1.06102,-4.19976 5.9404,-6.58215 5.57265,-2.720873 13.55064,-4.741903 18.0547,-4.573713 3.16001,0.37483 4.67117,1.355561 4.81385,4.021253 0.0862,1.70676 -0.38974,3.28903 -1.51358,5.03206 -3.785,5.8704 -11.40625,9.99057 -21.20233,11.46235 -6.06721,0.86314 -13.25678,0.4888 -18.52823,-0.57749 z m 2.63798,-17.536373 c -0.44648,-0.2935 -0.45011,-0.31461 -0.12953,-0.75387 2.8189,-3.86251 4.72801,-7.54791 6.91967,-13.35796 0.95184,-2.52332 1.45053,-3.16816 2.28758,-2.95797 0.92336,0.23185 1.09817,0.56395 2.05113,3.89674 1.16295,4.06713 2.28682,6.44608 4.12075,8.72259 1.11398,1.38281 1.27952,1.67487 1.00506,1.77314 -4.7873,1.71422 -9.07232,4.440493 -10.34889,6.584313 l -0.35105,0.58954 c -1.77988,-1.57592 -3.57877,-3.17549 -5.55472,-4.496523 z m -6.52883,-2.88166 c -1.697425,-0.76799 -3.035565,-2.84793 -2.824215,-4.38985 0.27441,-2.00202 0.72471,-2.5243 9.476095,-10.9906 3.66481,-3.54543 5.20046,-5.50171 6.78385,-8.64205 0.88682,-1.75882 1.19052,-2.19312 1.70532,-2.43861 0.59062,-0.28164 0.65583,-0.27668 1.14309,0.087 0.32074,0.23936 0.74627,0.94177 1.12185,1.85181 1.34555,3.26028 2.61471,4.85985 9.19751,11.59198 3.68395,3.76752 5.38401,5.82479 6.15189,7.44447 0.94628,3.084026 -0.19572,5.273202 -2.91936,5.27249 -1.42921,-0.006 -2.58061,-0.53775 -4.03769,-1.86589 -4.30118,-3.847223 -4.49652,-10.097953 -7.8602,-13.43116 -1.219,-1.15261 -3.18885,-1.26481 -4.57513,-0.26059 -0.52773,0.38229 -1.06137,1.12111 -1.88454,2.60914 -1.57925,2.85481 -6.34099,10.51132 -7.15505,11.50477 -1.32008,1.61099 -3.00122,2.25536 -4.32342,1.65714 z m -2.083325,-12.69898 c -1.48343,-1.16572 -0.99019,-4.128629 1.24079,-5.6251 3.294235,-1.617225 5.617455,-2.017575 8.489415,-0.98196 l -1.1015,1.01979 c -2.02557,1.87532 -4.62069,4.05928 -5.93516,4.99482 -1.394505,0.9925 -2.011715,1.12826 -2.693545,0.59245 z m 32.421195,-0.35391 c -2.07038,-1.56571 -7.03485,-6.00551 -7.03485,-6.29137 2.48921,-1.026046 5.97535,-0.595355 8.00391,0.90151 2.1323,1.62423 2.84961,4.35203 1.47855,5.62268 -0.69329,0.64252 -1.376,0.57758 -2.44761,-0.23282 z m -21.00894,-12.69328 c -0.61846,-3.343816 -1.38128,-5.466689 0.26727,-8.14811 1.64095,-3.32156 5.23744,-4.86424 8.65562,-3.71274 2.25979,0.76127 3.71317,2.21712 4.47704,4.48464 0.4973,1.47622 0.54236,4.07575 0.10369,5.98207 -0.31289,1.35974 -1.37264,3.57354 -1.69691,3.54484 -0.10366,-0.009 -0.62742,-0.73007 -1.16392,-1.60198 -2.16259,-3.5146 -2.3917,-3.81153 -3.30275,-4.28037 -0.77685,-0.39978 -0.95687,-0.42664 -1.54924,-0.23114 -0.96004,0.31684 -1.61847,1.10329 -3.30241,3.94452 l -1.48749,2.50974 c -0.44248,-0.806549 -0.7578,-1.722754 -1.0009,-2.49147 z"
       id="path826"
       inkscape:connector-curvature="0"
       sodipodi:nodetypes="ccccccsccccccscccccccccsccccsccccscccccccccccccsccccsccccsccsccccc"
       inkscape:export-xdpi="24.349571"
       inkscape:export-ydpi="24.349571" />
  </g>
</svg>
